# xmcd
#
# Track frame offsets: 
#        150
#        19342
#        36995
#        48577
#        69017
#        90080
#        106479
#        117737
#        136625
#        153980
#
# Disc length: 2390 seconds
#
# Revision: 0
# Processed by: cddbd v1.5.1PL0 Copyright (c) Steve Scherf et al.
# Submitted via: ExactAudioCopy v0.95a5
#
DISCID=7a09540a
DTITLE=이선희 - 세종문화회관 라이브
DYEAR=1995
DGENRE=Ballad
TTITLE0=J에게
TTITLE1=그대가 떠나신 후에
TTITLE2=아! 옛날이여
TTITLE3=어둠은 걷히고
TTITLE4=비오는 거리에 서서
TTITLE5=나의 거리
TTITLE6=그대가 나를 사랑하신다면
TTITLE7=추억의 책장을 넘기면
TTITLE8=나 항상 그대를
TTITLE9=아름다운 강산
EXTD=
EXTT0=
EXTT1=
EXTT2=
EXTT3=
EXTT4=
EXTT5=
EXTT6=
EXTT7=
EXTT8=
EXTT9=
PLAYORDER=
